<svg width="162" height="65" viewBox="0 0 162 65" fill="none" xmlns="http://www.w3.org/2000/svg">
<path d="M18.4216 49.4705C15.9543 49.4705 13.6926 48.8537 11.6365 47.62C9.62609 46.3406 8.00406 44.6729 6.77041 42.6168C5.53675 40.5151 4.91992 38.2077 4.91992 35.6947L4.98846 13.9686C4.98846 11.4556 5.58244 9.19388 6.77041 7.18348C8.00406 5.12739 9.62609 3.48251 11.6365 2.24885C13.6926 0.969508 15.9314 0.329834 18.3531 0.329834H22.7394C25.3438 0.329834 27.6512 0.969508 29.6616 2.24885C31.7177 3.5282 33.3169 5.21877 34.4591 7.32055C35.6471 9.42234 36.2182 11.7069 36.1726 14.1742L36.104 24.112C36.104 26.5336 35.7613 28.7268 35.076 30.6915C34.3906 32.6562 33.294 34.2097 31.7862 35.352C30.2784 36.4942 28.2452 37.0654 25.6865 37.0654C22.6252 37.0654 20.2949 35.8546 18.6958 33.4329C17.1423 30.9656 16.3655 27.8586 16.3655 24.112V15.1337C16.3655 14.9966 16.4569 14.9281 16.6397 14.9281H24.0416C24.1787 14.9281 24.2472 14.9966 24.2472 15.1337V24.3176C24.2472 26.2823 24.3614 27.6759 24.5899 28.4983C24.864 29.3208 25.3209 29.732 25.9606 29.732C26.7374 29.732 27.2171 29.3665 27.3999 28.6354C27.6283 27.8587 27.7426 26.4194 27.7426 24.3176L27.8111 13.9686C27.8111 12.4608 27.3313 11.1814 26.3718 10.1305C25.4123 9.07966 24.2015 8.55421 22.7394 8.55421H18.3531C16.9366 8.5999 15.7258 9.14819 14.7206 10.1991C13.7611 11.2043 13.2814 12.4608 13.2814 13.9686V35.6947C13.2814 37.2025 13.784 38.3447 14.7892 39.1215C15.7944 39.8525 17.0052 40.2181 18.4216 40.2181C21.0717 40.2181 24.0873 40.1952 27.4684 40.1495C30.8952 40.0581 34.1621 39.8754 37.2691 39.6012C37.4976 39.6012 37.6118 39.7155 37.6118 39.9439V48.4424C37.6118 48.6252 37.4976 48.7394 37.2691 48.7851C36.8122 48.8308 35.8984 48.8765 34.5277 48.9222C33.2026 49.0136 31.6035 49.105 29.7301 49.1963C27.9025 49.2877 25.9835 49.3563 23.9731 49.4019C22.0083 49.4476 20.1579 49.4705 18.4216 49.4705Z" fill="#F85200"/>
<path d="M43.1643 48.7851C42.9359 48.7851 42.8217 48.6709 42.8217 48.4424L42.9587 1.35788C42.9587 1.17512 43.0501 1.08373 43.2329 1.08373H56.3919C60.5955 1.08373 63.908 2.36308 66.3297 4.92178C68.797 7.48047 70.0306 10.953 70.0306 15.3393C70.0306 18.5834 69.391 21.3934 68.1116 23.7693C66.8323 26.1452 65.1645 27.9729 63.1085 29.2522C61.0524 30.5316 58.8135 31.1712 56.3919 31.1712H51.1831V48.4424C51.1831 48.6709 51.0689 48.7851 50.8404 48.7851H43.1643ZM51.1831 22.8783H56.3919C57.854 22.8783 59.1105 22.193 60.1614 20.8222C61.258 19.4058 61.8063 17.5782 61.8063 15.3393C61.8063 13.5574 61.3265 12.0953 60.367 10.953C59.4075 9.81071 58.0825 9.23957 56.3919 9.23957L51.1831 9.30811V22.8783Z" fill="#F85200"/>
<path d="M74.9546 48.7851C74.7718 48.7851 74.6804 48.6709 74.6804 48.4424L74.7489 1.42642C74.7489 1.19796 74.8632 1.08373 75.0916 1.08373H82.6992C82.9276 1.08373 83.0419 1.19796 83.0419 1.42642L82.9733 40.3551H97.0918C97.3203 40.3551 97.4345 40.4694 97.4345 40.6978V48.4424C97.4345 48.6709 97.3203 48.7851 97.0918 48.7851H74.9546Z" fill="#F85200"/>
<path d="M113.193 49.4705C110.771 49.4705 108.533 48.8537 106.477 47.62C104.42 46.3406 102.776 44.6501 101.542 42.5483C100.354 40.4465 99.7599 38.1391 99.7599 35.6261L99.897 1.35788C99.897 1.17512 99.9884 1.08373 100.171 1.08373H107.847C108.03 1.08373 108.121 1.17512 108.121 1.35788V35.6261C108.121 37.1796 108.601 38.5047 109.561 39.6012C110.566 40.6521 111.777 41.1776 113.193 41.1776C114.655 41.1776 115.866 40.6521 116.826 39.6012C117.831 38.5047 118.333 37.1796 118.333 35.6261V1.35788C118.333 1.17512 118.425 1.08373 118.607 1.08373H126.284C126.466 1.08373 126.558 1.17512 126.558 1.35788L126.695 35.6261C126.695 38.1848 126.078 40.5151 124.844 42.6168C123.656 44.7186 122.034 46.3863 119.978 47.62C117.968 48.8537 115.706 49.4705 113.193 49.4705Z" fill="#F85200"/>
<path d="M143.758 49.4705C141.29 49.4705 139.029 48.8537 136.973 47.62C134.962 46.3406 133.34 44.6729 132.106 42.6168C130.919 40.5151 130.325 38.2077 130.325 35.6947V32.542C130.325 32.3135 130.439 32.1993 130.667 32.1993H138.343C138.526 32.1993 138.617 32.3135 138.617 32.542V35.6947C138.617 37.2025 139.12 38.5047 140.125 39.6012C141.13 40.6521 142.341 41.1776 143.758 41.1776C145.174 41.1776 146.385 40.6293 147.39 39.5327C148.395 38.4361 148.898 37.1568 148.898 35.6947C148.898 34.0041 147.801 32.542 145.608 31.3083C144.877 30.8971 143.735 30.2574 142.181 29.3893C140.628 28.5212 139.166 27.6987 137.795 26.922C135.282 25.4599 133.409 23.6322 132.175 21.4391C130.987 19.2002 130.393 16.6872 130.393 13.9001C130.393 11.3414 131.01 9.05681 132.244 7.04641C133.477 4.99031 135.099 3.36828 137.11 2.18032C139.166 0.992353 141.382 0.39837 143.758 0.39837C146.179 0.39837 148.395 1.0152 150.406 2.24885C152.462 3.43682 154.084 5.05885 155.272 7.11494C156.505 9.12535 157.122 11.3871 157.122 13.9001V19.52C157.122 19.7028 157.031 19.7942 156.848 19.7942H149.172C148.989 19.7942 148.898 19.7028 148.898 19.52L148.829 13.9001C148.829 12.3009 148.327 10.9987 147.322 9.99347C146.316 8.98827 145.128 8.48567 143.758 8.48567C142.341 8.48567 141.13 9.03397 140.125 10.1305C139.12 11.1814 138.617 12.4379 138.617 13.9001C138.617 15.4079 138.937 16.6644 139.577 17.6696C140.217 18.6748 141.382 19.6343 143.072 20.5481C143.301 20.6852 143.735 20.9365 144.374 21.302C145.06 21.6218 145.791 22.0102 146.568 22.4671C147.344 22.8783 148.03 23.2439 148.624 23.5637C149.263 23.8835 149.652 24.0891 149.789 24.1805C152.073 25.4599 153.878 27.0362 155.203 28.9095C156.528 30.7372 157.191 32.9989 157.191 35.6947C157.191 38.299 156.574 40.6521 155.34 42.7539C154.152 44.81 152.53 46.4549 150.474 47.6885C148.464 48.8765 146.225 49.4705 143.758 49.4705Z" fill="#F85200"/>
<path d="M3 61.7271L159.349 61.7271" stroke="#F85200" stroke-width="5" stroke-linecap="round"/>
</svg>
