<svg width="35" height="35" viewBox="0 0 35 35" fill="none" xmlns="http://www.w3.org/2000/svg">
<path d="M31.4449 28.3585C31.4449 23.6161 24.9191 17.2009 17.3646 17.2009C9.81006 17.2009 3.42891 23.587 3.46106 28.3585C3.46106 29.144 3.46106 29.915 4.20044 31.5297C4.71479 32.6498 6.12924 33.6099 6.96506 34.0463C8.04198 34.5991 9.24749 34.6864 10.4048 34.6864C13.6355 34.7009 14.0374 33.1153 17.4449 33.1153C20.2899 33.1153 21.2061 34.7009 24.4529 34.7009C25.9478 34.7009 27.1533 34.3082 27.9569 34.0172C28.3105 33.8136 29.9179 32.9407 30.6412 31.5297C31.4609 29.9441 31.4609 29.1149 31.4609 28.3585H31.4449Z" fill="#5066DD"/>
<path d="M34.1931 14.6977C32.7834 17.6122 28.5224 18.4518 27.5878 14.8878C26.9067 12.1316 29.3461 8.61509 32.2765 9.04277C34.7792 9.43877 35.3812 12.5751 34.2248 14.6502L34.1931 14.6977Z" fill="#5066DD"/>
<path d="M0.597054 14.6977C2.00682 17.6122 6.2678 18.4518 7.20236 14.8878C7.88349 12.1316 5.44412 8.61509 2.51371 9.04277C0.0109764 9.43877 -0.590945 12.5751 0.565379 14.6502L0.597054 14.6977Z" fill="#5066DD"/>
<path d="M27.6373 5.70062C27.2571 9.56559 22.6476 12.2267 19.9865 8.56766C17.9907 5.73229 19.3054 0.774353 22.9328 0.0615501C26.0216 -0.492852 28.0966 2.80188 27.6531 5.62141V5.70062H27.6373Z" fill="#5066DD"/>
<path d="M7.07549 5.70062C7.45565 9.56559 12.0651 12.2267 14.7262 8.56766C16.7221 5.73229 15.4074 0.774353 11.78 0.0615501C8.69117 -0.492852 6.61613 2.80188 7.05965 5.62141V5.70062H7.07549Z" fill="#5066DD"/>
</svg>
