<svg width="35" height="36" viewBox="0 0 35 36" fill="none" xmlns="http://www.w3.org/2000/svg">
<path d="M31.4449 28.8473C31.4449 24.0232 24.9191 17.4974 17.3646 17.4974C9.81006 17.4974 3.42891 23.9936 3.46106 28.8473C3.46106 29.6463 3.46106 30.4306 4.20044 32.0731C4.71479 33.2126 6.12924 34.1892 6.96506 34.6331C8.04198 35.1954 9.24749 35.2842 10.4048 35.2842C13.6355 35.299 14.0374 33.6861 17.4449 33.6861C20.2899 33.6861 21.2061 35.299 24.4529 35.299C25.9478 35.299 27.1533 34.8995 27.9569 34.6035C28.3105 34.3964 29.9179 33.5085 30.6412 32.0731C31.4609 30.4602 31.4609 29.6167 31.4609 28.8473H31.4449Z" fill="#1C1C1C"/>
<path d="M34.1931 14.951C32.7834 17.9158 28.5224 18.7698 27.5878 15.1444C26.9067 12.3407 29.3461 8.76361 32.2765 9.19866C34.7792 9.60149 35.3812 12.7919 34.2248 14.9027L34.1931 14.951Z" fill="#1C1C1C"/>
<path d="M0.597054 14.951C2.00682 17.9158 6.2678 18.7698 7.20236 15.1444C7.88349 12.3407 5.44412 8.76361 2.51371 9.19866C0.0109764 9.60149 -0.590945 12.7919 0.565379 14.9027L0.597054 14.951Z" fill="#1C1C1C"/>
<path d="M27.6373 5.79892C27.2571 9.73051 22.6476 12.4375 19.9865 8.71538C17.9907 5.83115 19.3054 0.787761 22.9328 0.0626729C26.0216 -0.501284 28.0966 2.85023 27.6531 5.71835V5.79892H27.6373Z" fill="#1C1C1C"/>
<path d="M7.07549 5.79892C7.45565 9.73051 12.0651 12.4375 14.7262 8.71538C16.7221 5.83115 15.4074 0.787761 11.78 0.0626729C8.69117 -0.501284 6.61613 2.85023 7.05965 5.71835V5.79892H7.07549Z" fill="#1C1C1C"/>
</svg>
