<svg width="35" height="36" viewBox="0 0 35 36" fill="none" xmlns="http://www.w3.org/2000/svg">
<path d="M3.34616 6.45176C3.34616 11.2758 9.87195 17.8016 17.4265 17.8016C24.981 17.8016 31.3621 11.3054 31.33 6.45176C31.33 5.65268 31.33 4.86841 30.5906 3.22586C30.0762 2.08644 28.6618 1.1098 27.826 0.665874C26.749 0.103562 25.5435 0.0147731 24.3862 0.0147731C21.1555 -2.45903e-05 20.7537 1.61292 17.3461 1.61292C14.5011 1.61292 13.5849 -2.8589e-05 10.3381 -2.8589e-05C8.84326 -2.8589e-05 7.63775 0.399511 6.83408 0.695465C6.48047 0.902632 4.87313 1.79049 4.14983 3.22586C3.33008 4.83881 3.33008 5.68228 3.33008 6.45176H3.34616Z" fill="#5066DD"/>
<path d="M0.597873 20.348C2.00764 17.3832 6.26861 16.5292 7.20318 20.1546C7.8843 22.9583 5.44493 26.5354 2.51452 26.1004C0.0117892 25.6975 -0.590138 22.5071 0.566187 20.3963L0.597873 20.348Z" fill="#5066DD"/>
<path d="M34.194 20.348C32.7842 17.3832 28.5232 16.5292 27.5887 20.1546C26.9075 22.9583 29.3469 26.5354 32.2773 26.1004C34.78 25.6975 35.382 22.5071 34.2256 20.3963L34.194 20.348Z" fill="#5066DD"/>
<path d="M7.15376 29.5001C7.53392 25.5685 12.1434 22.8615 14.8045 26.5836C16.8004 29.4679 15.4856 34.5113 11.8583 35.2363C8.76945 35.8003 6.6944 32.4488 7.13792 29.5807V29.5001H7.15376Z" fill="#5066DD"/>
<path d="M27.7155 29.5001C27.3354 25.5685 22.7259 22.8615 20.0648 26.5836C18.0689 29.4679 19.3837 34.5113 23.011 35.2363C26.0998 35.8003 28.1749 32.4488 27.7314 29.5807V29.5001H27.7155Z" fill="#5066DD"/>
</svg>
