<svg width="103" height="37" viewBox="0 0 103 37" fill="none" xmlns="http://www.w3.org/2000/svg">
<path d="M0 9.09132H11.4662V15.2829H11.7956C11.8615 14.7695 12.3228 11.568 15.1894 9.9672C17.0674 8.9101 19.0114 9.03091 20.0987 9.09132C20.9224 9.15172 23.2289 9.30274 25.3046 10.8129C28.6984 13.2895 28.6984 17.3367 28.6984 18.3334C28.6984 19.4509 28.6984 21.8974 26.7873 24.1928C26.2601 24.8271 24.448 26.9715 21.1531 27.485C20.3953 27.6058 16.9686 28.0588 14.2668 25.8238C12.2569 24.1626 11.8286 22.0182 11.7298 21.3839C11.6309 21.3839 11.5321 21.3839 11.4662 21.3839V36.6667H0V9.09132ZM13.5419 21.3235C14.3327 21.5652 15.0576 21.2631 15.1564 21.2027C16.705 20.5383 16.6721 18.5751 16.6721 18.3636C16.6721 18.0918 16.6721 16.1286 15.1564 15.4944C15.0576 15.4339 14.3327 15.1319 13.5419 15.3735C12.224 15.7662 11.7627 17.3971 11.7627 18.3636C11.7627 19.3905 12.191 20.9309 13.509 21.3235H13.5419Z" fill="#4B62DD"/>
<path d="M42.4377 0V27.5451H30.9715V0H42.4377Z" fill="#4B62DD"/>
<path d="M73.0476 27.515H61.878V20.6287H61.5814C60.7906 25.6726 58.0888 27.515 53.2454 27.515C47.8418 27.515 44.7117 24.9176 44.7117 18.4541V9.1516H56.8368V17.7293C56.8368 19.2092 57.5946 19.9039 59.2421 19.9039C60.8895 19.9039 61.5814 19.2092 61.5814 17.7293V9.1516H73.0476V27.515Z" fill="#4B62DD"/>
<path d="M81.5156 20.3872V20.1456C78.2207 19.6623 75.3541 18.3938 75.3541 15.011C75.3541 10.994 79.4068 9.21207 87.9076 9.21207C96.9685 9.21207 101.614 10.9336 102.043 15.3433L95.4529 16.3098V16.5514C98.9125 16.9742 102.043 18.1824 102.043 21.7161C102.043 25.7331 97.9899 27.5453 89.2915 27.5453C80.593 27.5453 76.112 25.8539 75.3541 21.4141L81.5156 20.3872ZM89.3574 21.7161C90.5106 21.7161 91.0707 21.5349 91.0707 21.1423C91.0707 20.3872 88.7643 20.4778 85.8977 20.4174C86.5567 21.3235 87.677 21.7463 89.3574 21.7463V21.7161ZM90.8401 16.2796C90.2799 15.4037 89.3244 14.9808 87.9076 14.9808C86.8533 14.9808 86.392 15.1621 86.392 15.5245C86.392 16.2192 88.3689 16.189 90.873 16.2494L90.8401 16.2796Z" fill="#4B62DD"/>
</svg>
